<?xml version="1.0" encoding="UTF-8" standalone="no"?>
<!DOCTYPE svg PUBLIC "-//W3C//DTD SVG 1.0//EN" "http://www.w3.org/TR/2001/PR-SVG-20010719/DTD/svg10.dtd">
<svg width="14cm" height="16cm" viewBox="163 164 270 314" xmlns="http://www.w3.org/2000/svg" xmlns:xlink="http://www.w3.org/1999/xlink">
  <g>
    <ellipse style="fill: #ffffff" cx="255" cy="457" rx="20" ry="20"/>
    <ellipse style="fill: none; fill-opacity:0; stroke-width: 3; stroke: #000000" cx="255" cy="457" rx="20" ry="20"/>
    <ellipse style="fill: none; fill-opacity:0; stroke-width: 3; stroke: #000000" cx="255" cy="457" rx="20" ry="20"/>
  </g>
  <text font-size="12.8" style="fill: #000000;text-anchor:start;font-family:sans-serif;font-style:normal;font-weight:normal" x="255" y="457">
    <tspan x="255" y="457">A</tspan>
  </text>
  <g>
    <ellipse style="fill: #ffffff" cx="184.9" cy="337" rx="20" ry="20"/>
    <ellipse style="fill: none; fill-opacity:0; stroke-width: 3; stroke: #000000" cx="184.9" cy="337" rx="20" ry="20"/>
    <ellipse style="fill: none; fill-opacity:0; stroke-width: 3; stroke: #000000" cx="184.9" cy="337" rx="20" ry="20"/>
  </g>
  <text font-size="12.8" style="fill: #000000;text-anchor:start;font-family:sans-serif;font-style:normal;font-weight:normal" x="184.9" y="337">
    <tspan x="184.9" y="337">B</tspan>
  </text>
  <g>
    <ellipse style="fill: #ffffff" cx="411.9" cy="186" rx="20" ry="20"/>
    <ellipse style="fill: none; fill-opacity:0; stroke-width: 3; stroke: #000000" cx="411.9" cy="186" rx="20" ry="20"/>
    <ellipse style="fill: none; fill-opacity:0; stroke-width: 3; stroke: #000000" cx="411.9" cy="186" rx="20" ry="20"/>
  </g>
  <text font-size="12.8" style="fill: #000000;text-anchor:start;font-family:sans-serif;font-style:normal;font-weight:normal" x="411.9" y="186">
    <tspan x="411.9" y="186">C</tspan>
  </text>
  <g>
    <ellipse style="fill: #ffffff" cx="264.9" cy="256" rx="20" ry="20"/>
    <ellipse style="fill: none; fill-opacity:0; stroke-width: 3; stroke: #000000" cx="264.9" cy="256" rx="20" ry="20"/>
    <ellipse style="fill: none; fill-opacity:0; stroke-width: 3; stroke: #000000" cx="264.9" cy="256" rx="20" ry="20"/>
  </g>
  <text font-size="12.8" style="fill: #000000;text-anchor:start;font-family:sans-serif;font-style:normal;font-weight:normal" x="264.9" y="256">
    <tspan x="264.9" y="256">D</tspan>
  </text>
  <g>
    <line style="fill: none; fill-opacity:0; stroke-width: 3; stroke: #000000" x1="265.769" y1="438.4" x2="395.693" y2="213.993"/>
    <polygon style="fill: #000000" points="399.451,207.503 398.767,218.662 395.693,213.993 390.113,213.651 "/>
    <polygon style="fill: none; fill-opacity:0; stroke-width: 3; stroke: #000000" points="399.451,207.503 398.767,218.662 395.693,213.993 390.113,213.651 "/>
  </g>
  <g>
    <line style="fill: none; fill-opacity:0; stroke-width: 3; stroke: #000000" x1="244.167" y1="438.455" x2="201.208" y2="364.917"/>
    <polygon style="fill: #000000" points="197.425,358.441 206.787,364.554 201.208,364.917 198.152,369.598 "/>
    <polygon style="fill: none; fill-opacity:0; stroke-width: 3; stroke: #000000" points="197.425,358.441 206.787,364.554 201.208,364.917 198.152,369.598 "/>
  </g>
  <g>
    <line style="fill: none; fill-opacity:0; stroke-width: 3; stroke: #000000" x1="284.298" y1="246.763" x2="382.702" y2="199.904"/>
    <polygon style="fill: #000000" points="389.474,196.679 382.595,205.493 382.702,199.904 378.296,196.464 "/>
    <polygon style="fill: none; fill-opacity:0; stroke-width: 3; stroke: #000000" points="389.474,196.679 382.595,205.493 382.702,199.904 378.296,196.464 "/>
  </g>
  <g>
    <line style="fill: none; fill-opacity:0; stroke-width: 3; stroke: #000000" x1="199.998" y1="321.714" x2="242.175" y2="279.009"/>
    <polygon style="fill: #000000" points="247.445,273.673 243.976,284.301 242.175,279.009 236.861,277.274 "/>
    <polygon style="fill: none; fill-opacity:0; stroke-width: 3; stroke: #000000" points="247.445,273.673 243.976,284.301 242.175,279.009 236.861,277.274 "/>
  </g>
</svg>
